PathFileType	4	(X/Y/Z)	Walk4.trc
DataRate	CameraRate	NumFrames	NumMarkers	Units	OrigDataRate	OrigDataStartFrame	OrigNumFrames
200.000000	200.000000	6	58	mm	200.000000	373	454
Frame#	Times		LFHD		RFHD		RBHD		C7		CLAV		STRN		RBack		RASI		LPSI		RACR1		RUA1		RElbow		RFA1		RWRR		RCAR		LACR1		LUA1		LElbow		LFA1		LWRR		LWRU		LCAR		RTH1		RTH3		RTH2		RTH4		RLFC		RTB1		RTB3		RTB2		RTB4		RLMAL		RMMAL		RCAL		RMT1		RMT5		RToe		LTH1		LTH3		LTH2		LTH4		LLFC		LTB1		LTB3		LTB2		LTB4		LLMAL		LMT5		LToe		RWRU		LBHD		T10		LMMAL		RPSI		LASI		LElbowM		LMT1		LCAL
			X1	Y1	Z1	X2	Y2	Z2	X3	Y3	Z3	X4	Y4	Z4	X5	Y5	Z5	X6	Y6	Z6	X7	Y7	Z7	X8	Y8	Z8	X9	Y9	Z9	X10	Y10	Z10	X11	Y11	Z11	X12	Y12	Z12	X13	Y13	Z13	X14	Y14	Z14	X15	Y15	Z15	X16	Y16	Z16	X17	Y17	Z17	X18	Y18	Z18	X19	Y19	Z19	X20	Y20	Z20	X21	Y21	Z21	X22	Y22	Z22	X23	Y23	Z23	X24	Y24	Z24	X25	Y25	Z25	X26	Y26	Z26	X27	Y27	Z27	X28	Y28	Z28	X29	Y29	Z29	X30	Y30	Z30	X31	Y31	Z31	X32	Y32	Z32	X33	Y33	Z33	X34	Y34	Z34	X35	Y35	Z35	X36	Y36	Z36	X37	Y37	Z37	X38	Y38	Z38	X39	Y39	Z39	X40	Y40	Z40	X41	Y41	Z41	X42	Y42	Z42	X43	Y43	Z43	X44	Y44	Z44	X45	Y45	Z45	X46	Y46	Z46	X47	Y47	Z47	X48	Y48	Z48	X49	Y49	Z49	X50	Y50	Z50	X51	Y51	Z51	X52	Y52	Z52	X53	Y53	Z53	X54	Y54	Z54	X55	Y55	Z55	X56	Y56	Z56	X57	Y57	Z57	X58	Y58	Z58

373	1.865	687.75	1587.4	-52.511	692.56	1578.4	41.531	538.52	1534	63.33	503.63	1400.9	-9.1269	647.25	1331.3	-15.984	714.01	1231.7	-11.101	457.55	1304.8	99.891	702.58	969.27	153.08	469.13	946.18	-40.634	582.31	1367.1	141.06	569.54	1188.1	242.76	523.66	1065.4	270.41	548.34	920.44	291.93	647.57	835.34	268.73	657.32	787.78	323.46	575.78	1359.8	-171.12	554.83	1173	-255.55	508.27	1048.7	-269.55	489.69	916.94	-287.92	544.2	794.39	-258.02	489.16	801.2	-302.96	538.6	745.86	-300.08	620.08	718.58	221.82	586.26	555.26	183.29	655.13	633.04	175.92	601.19	636.36	199.52	561.29	470.04	164.86	496.38	314.4	97.202	359.4	208.91	92.514	411.97	280.26	149.88	426.93	261.05	91.689	245.8	163.36	115.02	265.88	157.45	35.021	187.03	193.55	73.468	283	49.767	51.291	256.21	62.235	119.57	323.06	23.87	85.109	661.64	749.06	-206.27	709.98	594.65	-150.42	738.65	695.91	-163.51	684.87	673.75	-173.48	745.56	481.46	-114.69	803.1	343.66	-35.612	792.56	171.69	-42.181	780.32	258.79	-96.046	797.3	257.07	-37.279	758.24	59.242	-71.911	841.6	24.356	-80.591	937.04	26.458	-22.124	587.23	817.71	304.78	535.09	1539.9	-78.354	450.05	1130.6	-2.4685	763.75	64.135	12.051	466.77	947.5	48.679	726.2	960.47	-129.6	487.86	1026.1	-191.92	866.87	30.818	0.24333	690.56	30.967	-42.313
374	1.87	693.37	1588.2	-53.089	697.96	1579.3	40.971	543.85	1535	62.382	509.09	1401.7	-9.8439	652.71	1332.3	-16.417	719.6	1232.8	-11.637	462.95	1305.8	99.233	707.8	970.13	152.64	474.83	947.17	-41.255	587.67	1368.1	140.48	574.77	1189	242.04	528.42	1066.3	269.47	551.92	921.21	290.89	650.02	835.16	267.58	659.55	787.34	322.18	581.58	1360.7	-171.63	561.49	1173.8	-256.09	515.53	1049.4	-270.22	498.03	917.29	-288.47	553.2	795.24	-257.99	498.44	801.56	-303.37	548.22	746.56	-299.94	627.55	719.01	221.07	596.38	554.92	183.5	664.07	633.79	175.65	609.99	636.37	199.23	572.4	469.48	165.43	506.9	314.19	98.383	368.34	210.63	93.196	421.61	281.36	150.54	436.65	261.79	92.597	253.89	166.65	115.28	274.5	160.22	35.413	196.29	198.49	73.133	287.77	51.562	51.429	261.31	64.62	119.02	325.98	24.273	85.332	667.85	750.36	-206.9	713.98	595.3	-151.02	743.85	696.23	-163.55	689.92	674.77	-174.08	748.34	481.58	-115.16	804.72	343.37	-35.792	793.23	171.46	-42.222	781.66	258.57	-96.235	798.42	256.81	-37.404	758.3	59.191	-71.96	841.57	24.395	-80.63	937.05	26.323	-22.09	589.8	818.19	303.81	540.71	1540.7	-79.26	455.68	1131.4	-3.1057	763.75	64.157	11.986	472.25	948.15	48.081	732.16	961.81	-129.89	494.83	1026.6	-192.66	866.77	30.883	0.27732	690.51	30.955	-42.444
375	1.875	698.97	1589	-53.662	703.34	1580.2	40.415	549.18	1536.1	61.463	514.55	1402.5	-10.517	658.13	1333.2	-16.811	725.15	1234	-12.132	468.32	1306.7	98.603	712.92	970.95	152.27	480.49	948.17	-41.922	592.99	1369.1	139.94	579.98	1189.9	241.36	533.17	1067.2	268.58	555.51	922	289.89	652.45	834.99	266.42	661.81	786.91	320.89	587.37	1361.6	-172.1	568.16	1174.7	-256.61	522.81	1050	-270.89	506.44	917.66	-289.03	562.31	796.15	-257.96	507.82	801.94	-303.78	557.98	747.31	-299.81	634.94	719.54	220.35	606.43	554.72	183.71	672.94	634.63	175.47	618.7	636.49	198.95	583.45	469.06	165.97	517.6	314.08	99.559	377.55	212.34	93.884	431.45	282.49	151.2	446.6	262.58	93.503	262.35	169.85	115.57	283.41	162.92	35.807	205.81	203.16	72.897	293.23	53.488	51.606	267.07	67.047	118.56	329.75	24.809	85.596	673.98	751.62	-207.49	717.87	595.93	-151.62	748.95	696.51	-163.55	694.87	675.76	-174.67	750.99	481.67	-115.64	806.21	343.08	-35.933	793.85	171.24	-42.245	782.95	258.35	-96.407	799.45	256.56	-37.499	758.35	59.14	-72.016	841.54	24.429	-80.662	937.05	26.231	-22.07	592.4	818.69	302.89	546.31	1541.6	-80.147	461.26	1132.2	-3.7349	763.73	64.176	11.912	477.67	948.81	47.434	738.05	963.09	-130.16	501.79	1027.2	-193.43	866.67	30.958	0.29972	690.45	30.94	-42.573
376	1.88	704.56	1589.8	-54.227	708.73	1581.2	39.866	554.5	1537.2	60.577	519.99	1403.4	-11.146	663.53	1334.2	-17.168	730.68	1235.1	-12.582	473.67	1307.7	97.999	717.95	971.74	151.97	486.12	949.18	-42.634	598.29	1370.1	139.45	585.17	1190.7	240.72	537.91	1068.1	267.74	559.11	922.78	288.93	654.87	834.84	265.26	664.08	786.51	319.59	593.14	1362.5	-172.54	574.85	1175.6	-257.11	530.1	1050.6	-271.57	514.91	918.05	-289.59	571.53	797.09	-257.93	517.29	802.36	-304.19	567.87	748.11	-299.68	642.26	720.18	219.67	616.36	554.65	183.92	681.73	635.58	175.38	627.32	636.73	198.69	594.41	468.8	166.47	528.44	314.07	100.71	387.02	214.07	94.567	441.49	283.66	151.82	456.77	263.42	94.396	271.14	172.93	115.87	292.6	165.56	36.194	215.55	207.54	72.764	299.41	55.522	51.827	273.52	69.508	118.19	334.43	25.488	85.904	680	752.85	-208.05	721.66	596.52	-152.2	753.93	696.74	-163.52	699.72	676.72	-175.26	753.52	481.75	-116.12	807.58	342.79	-36.042	794.42	171.03	-42.251	784.19	258.13	-96.564	800.39	256.32	-37.569	758.38	59.089	-72.079	841.52	24.457	-80.69	937.02	26.172	-22.06	595.02	819.22	302.01	551.9	1542.4	-81.012	466.81	1133.1	-4.3558	763.71	64.193	11.829	483.04	949.5	46.741	743.88	964.31	-130.42	508.74	1027.8	-194.21	866.56	31.039	0.31229	690.39	30.92	-42.7
377	1.885	710.14	1590.6	-54.785	714.1	1582.2	39.324	559.83	1538.2	59.729	525.41	1404.2	-11.727	668.9	1335.1	-17.489	736.18	1236.2	-12.989	478.99	1308.6	97.42	722.89	972.48	151.75	491.7	950.19	-43.387	603.55	1371	139	590.34	1191.6	240.12	542.63	1069	266.95	562.73	923.56	288.02	657.29	834.69	264.1	666.38	786.13	318.28	598.9	1363.4	-172.95	581.56	1176.4	-257.58	537.42	1051.3	-272.25	523.44	918.45	-290.16	580.85	798.09	-257.91	526.84	802.81	-304.61	577.88	748.98	-299.56	649.47	720.9	219.02	626.16	554.74	184.11	690.42	636.63	175.4	635.83	637.09	198.45	605.26	468.69	166.92	539.42	314.18	101.84	396.74	215.79	95.233	451.71	284.88	152.41	467.13	264.32	95.266	280.28	175.9	116.19	302.06	168.13	36.565	225.47	211.59	72.735	306.37	57.641	52.096	280.68	71.985	117.94	340.1	26.312	86.255	685.9	754.03	-208.57	725.35	597.08	-152.77	758.79	696.93	-163.48	704.48	677.65	-175.84	755.94	481.8	-116.6	808.84	342.51	-36.129	794.95	170.82	-42.247	785.37	257.9	-96.709	801.25	256.08	-37.622	758.41	59.039	-72.145	841.49	24.479	-80.715	936.99	26.14	-22.06	597.67	819.76	301.18	557.47	1543.3	-81.852	472.33	1133.9	-4.9678	763.68	64.209	11.74	488.35	950.21	46.004	749.63	965.46	-130.65	515.7	1028.4	-195.01	866.45	31.122	0.31663	690.32	30.899	-42.823
378	1.89	715.69	1591.4	-55.334	719.47	1583.1	38.79	565.14	1539.3	58.922	530.83	1405.1	-12.263	674.26	1336.1	-17.778	741.65	1237.3	-13.349	484.29	1309.5	96.864	727.74	973.18	151.59	497.25	951.21	-44.175	608.79	1372	138.6	595.48	1192.4	239.55	547.33	1069.9	266.2	566.37	924.34	287.16	659.72	834.57	262.95	668.72	785.76	316.97	604.63	1364.3	-173.31	588.28	1177.3	-258.04	544.75	1052	-272.93	532.01	918.87	-290.74	590.26	799.12	-257.89	536.48	803.29	-305.03	588	749.9	-299.45	656.57	721.72	218.42	635.81	554.96	184.29	698.98	637.78	175.52	644.21	637.56	198.24	616	468.72	167.33	550.51	314.39	102.92	406.7	217.51	95.875	462.11	286.14	152.97	477.69	265.27	96.108	289.74	178.73	116.51	311.78	170.64	36.914	235.56	215.3	72.804	314.12	59.816	52.415	288.59	74.458	117.82	346.8	27.277	86.651	691.68	755.15	-209.06	728.97	597.61	-153.32	763.54	697.08	-163.41	709.13	678.53	-176.41	758.28	481.85	-117.07	810.02	342.25	-36.206	795.45	170.63	-42.237	786.5	257.68	-96.849	802.05	255.85	-37.666	758.43	58.993	-72.215	841.46	24.495	-80.74	936.94	26.129	-22.068	600.36	820.32	300.4	563.04	1544.1	-82.664	477.81	1134.8	-5.5704	763.64	64.226	11.645	493.62	950.94	45.227	755.32	966.53	-130.87	522.65	1029	-195.82	866.34	31.205	0.31428	690.26	30.875	-42.938
